<?xml version="1.0" standalone="no"?>
<!DOCTYPE svg PUBLIC "-//W3C//DTD SVG 20010904//EN"
 "http://www.w3.org/TR/2001/REC-SVG-20010904/DTD/svg10.dtd">
<svg version="1.0" xmlns="http://www.w3.org/2000/svg"
 width="300.000000pt" height="237.000000pt" viewBox="0 0 300.000000 237.000000"
 preserveAspectRatio="xMidYMid meet">
<metadata>
Created by potrace 1.10, written by Peter Selinger 2001-2011
</metadata>
<g transform="translate(0.000000,237.000000) scale(0.100000,-0.100000)"
fill="#000000" stroke="none">
<path d="M1208 2113 c-7 -21 -13 -81 -13 -134 0 -89 2 -99 30 -144 41 -66 100
-106 164 -113 55 -5 55 -6 63 -97 3 -25 -37 -200 -48 -214 -2 -2 -25 20 -51
49 -35 39 -48 62 -49 85 -2 73 -27 129 -79 182 -63 62 -122 83 -237 83 -76 0
-78 -1 -73 -22 3 -13 11 -56 20 -97 19 -98 47 -152 101 -200 67 -59 167 -72
241 -33 20 11 26 8 63 -39 51 -65 56 -87 41 -174 -22 -117 -37 -279 -30 -305
6 -22 7 -23 8 -4 1 12 7 27 15 33 12 10 16 5 21 -33 13 -83 23 -58 26 63 l4
118 58 66 58 66 33 -20 c75 -44 182 -31 257 30 45 38 94 129 109 206 6 33 15
77 20 99 l9 39 -107 -5 c-82 -4 -119 -10 -160 -28 -96 -42 -172 -154 -172
-253 0 -22 -13 -43 -45 -78 -25 -26 -45 -45 -45 -41 0 4 7 61 15 125 17 127
51 273 83 352 17 42 24 50 44 47 67 -7 120 -2 156 17 36 18 102 82 102 99 1
11 36 135 45 156 7 17 6 18 -11 11 -10 -4 -62 -11 -115 -14 -85 -6 -101 -10
-133 -34 -46 -36 -68 -79 -72 -142 -2 -33 -14 -71 -37 -112 l-33 -63 -12 58
c-11 52 -10 62 8 97 41 81 14 181 -61 232 -24 16 -70 42 -102 57 -32 15 -63
37 -70 47 -17 27 -24 24 -39 -18z m219 -139 c17 -20 35 -49 38 -66 8 -33 -2
-98 -14 -98 -4 0 -20 26 -35 58 -15 32 -43 76 -62 98 l-35 39 35 -51 c43 -61
86 -152 86 -179 0 -17 -2 -17 -10 -5 -6 10 -10 11 -10 3 0 -24 -65 -14 -107
16 -67 48 -87 92 -88 186 0 123 0 123 92 75 43 -22 92 -56 110 -76z m410 -17
c1 -2 -5 -29 -14 -61 -25 -90 -97 -146 -187 -146 -34 0 -33 12 5 44 41 35 27
33 -27 -4 -24 -17 -44 -27 -44 -21 0 11 65 64 128 104 23 15 42 30 42 33 0 6
-8 2 -84 -48 -32 -21 -61 -37 -63 -34 -11 11 9 57 37 90 35 39 81 54 155 49
27 -2 50 -5 52 -6z m-724 -197 c60 -23 113 -69 133 -117 26 -60 18 -66 -38
-26 -29 21 -55 40 -58 43 -3 4 -23 19 -45 33 -75 51 -57 27 32 -42 115 -89
156 -128 148 -141 -4 -6 -49 25 -106 72 -55 46 -110 89 -122 97 -36 23 42 -50
127 -118 l78 -64 -27 -15 c-67 -35 -166 4 -220 87 -26 39 -66 177 -58 198 8
20 95 16 156 -7z m807 -218 c0 -50 -30 -146 -62 -196 -45 -69 -106 -106 -178
-106 -31 0 -64 6 -74 13 -16 12 -10 20 68 87 81 69 103 91 74 74 -7 -5 -52
-39 -100 -76 -47 -37 -89 -68 -92 -68 -3 0 -6 6 -6 14 0 8 53 54 118 102 176
131 178 143 3 19 -51 -36 -96 -63 -99 -60 -9 9 25 93 50 125 24 30 101 77 146
90 15 4 55 8 90 9 62 1 62 1 62 -27z"/>
<path d="M1354 1894 c10 -17 27 -41 38 -55 16 -20 16 -17 -3 19 -13 24 -30 49
-38 55 -11 9 -10 3 3 -19z"/>
<path d="M2543 1805 c-19 -14 -53 -91 -53 -122 0 -8 13 -13 38 -13 42 0 95
-29 113 -61 16 -31 8 -76 -56 -297 -57 -200 -62 -222 -45 -222 6 0 10 2 10 4
0 2 20 71 44 153 91 303 95 332 59 369 -14 13 -14 23 -5 66 17 71 15 86 -13
113 -27 28 -61 32 -92 10z m71 -41 c19 -18 20 -25 4 -58 -9 -21 -16 -24 -37
-20 -43 11 -52 24 -36 62 16 36 43 42 69 16z"/>
<path d="M2462 1632 c-22 -22 -27 -36 -120 -372 -155 -554 -158 -567 -117
-563 37 3 110 -18 132 -39 18 -16 24 -18 27 -7 20 60 83 285 120 429 24 96 63
243 86 327 23 84 40 162 38 174 -4 31 -49 60 -101 66 -36 4 -49 1 -65 -15z
m102 -24 c14 -6 28 -19 31 -29 6 -19 -13 -107 -27 -126 -5 -7 -7 -16 -4 -22 3
-5 1 -22 -5 -38 -6 -15 -26 -84 -44 -153 -18 -69 -45 -168 -60 -220 -15 -52
-38 -135 -52 -185 -30 -111 -46 -139 -72 -125 -10 5 -33 11 -51 12 -18 1 -35
8 -37 15 -6 15 10 86 42 193 13 41 37 129 55 195 18 66 45 163 60 215 15 52
37 131 49 175 29 101 54 122 115 93z"/>
<path d="M2513 1582 c-15 -12 -31 -51 -52 -122 -29 -103 -60 -219 -66 -251 -2
-9 -8 -34 -14 -55 -16 -56 -43 -184 -45 -217 -4 -56 13 -7 63 183 106 394 123
450 138 450 10 0 13 -6 10 -17 -3 -10 -46 -159 -96 -332 -51 -172 -90 -316
-87 -318 7 -7 27 44 79 207 136 425 141 444 109 473 -16 14 -19 14 -39 -1z"/>
<path d="M1005 1301 c-21 -4 -31 -13 -33 -29 -3 -20 1 -22 39 -22 91 0 188
-80 253 -208 28 -55 40 -70 52 -65 23 9 12 75 -24 155 -37 81 -101 141 -173
162 -56 17 -66 17 -114 7z"/>
<path d="M1020 1107 c0 -9 -40 -12 -145 -12 -131 0 -146 -2 -165 -20 -11 -11
-85 -171 -166 -355 -196 -450 -188 -427 -173 -462 6 -16 20 -33 30 -38 10 -6
182 -10 421 -10 327 0 415 -3 461 -15 72 -19 117 -19 187 0 44 12 135 15 461
15 396 0 407 1 433 21 37 29 34 64 -15 173 -40 91 -40 91 -23 124 9 17 21 32
25 32 17 0 30 40 20 59 -14 25 -82 51 -135 51 -28 0 -43 4 -43 13 0 16 -108
285 -140 350 -14 29 -34 52 -49 57 -14 6 -70 10 -125 10 -181 0 -396 -64 -437
-131 -16 -25 -1 -24 31 1 39 31 41 24 7 -18 -17 -21 -32 -47 -35 -58 -2 -10
-7 -30 -11 -44 -5 -19 0 -16 22 15 83 119 152 177 229 189 l40 7 -25 -20 c-30
-24 -23 -27 16 -6 16 8 36 15 46 15 15 0 15 -5 1 -57 -20 -76 -43 -120 -89
-166 -42 -41 -125 -85 -176 -91 -18 -3 -34 -6 -35 -7 -2 -1 -9 -2 -15 -3 -7 0
-14 -9 -16 -18 -5 -24 29 -23 104 2 80 28 159 82 197 136 36 51 66 125 67 167
l0 27 88 0 c48 0 92 -4 99 -8 11 -7 156 -337 175 -397 5 -16 10 -72 11 -124
l3 -94 -86 7 c-261 19 -335 19 -416 1 -86 -19 -211 -71 -233 -98 -7 -9 -17
-17 -22 -17 -12 0 -11 452 1 484 6 16 6 27 0 31 -6 4 -13 -2 -16 -12 -3 -10
-9 -25 -14 -34 -5 -9 -6 -27 -3 -40 4 -19 3 -21 -6 -9 -6 8 -11 25 -11 37 0
25 -35 53 -66 53 -54 0 -184 80 -220 136 -18 27 -35 92 -25 98 10 7 122 -44
168 -76 24 -16 50 -43 59 -59 8 -17 18 -29 21 -26 8 8 -32 90 -53 109 -31 26
-234 118 -234 105z m-6 -123 c15 -131 99 -222 253 -275 l53 -18 0 45 c0 46
-14 59 -25 24 -7 -23 -12 -24 -45 -5 -31 18 -44 19 -34 3 13 -21 -87 56 -114
87 -30 35 -57 96 -66 145 -6 33 -5 32 19 -15 35 -71 83 -108 191 -151 l94 -37
0 -240 0 -239 -22 16 c-38 28 -146 76 -211 94 -72 19 -233 22 -479 8 -87 -5
-158 -7 -158 -4 0 2 9 23 21 47 11 23 70 156 130 294 61 139 115 258 121 264
7 9 48 13 138 13 l127 0 7 -56z m1289 -396 c17 -9 17 -11 -3 -41 -11 -18 -30
-49 -42 -69 -13 -22 -29 -38 -40 -38 -16 0 -18 9 -18 78 0 43 3 82 7 85 8 8
70 -2 96 -15z m-1144 -237 c41 -12 86 -29 100 -37 l26 -15 -25 6 c-14 3 -56
13 -95 21 -81 19 -307 22 -525 6 -129 -9 -124 -9 140 -10 265 0 329 -5 483
-38 38 -8 71 -13 72 -12 1 2 11 15 22 31 l21 27 24 -28 24 -29 125 24 c108 21
155 24 369 25 l245 1 -165 13 c-219 19 -405 6 -513 -35 -37 -14 -34 -5 4 15
59 30 218 64 303 64 116 0 386 -22 386 -32 0 -14 30 -9 36 7 4 10 20 15 45 15
35 0 41 -4 59 -40 11 -21 20 -42 20 -45 0 -3 -180 -5 -400 -5 -418 0 -498 -6
-507 -40 -6 -23 -68 -36 -89 -19 -8 6 -14 8 -15 3 0 -5 -4 1 -9 13 -15 37 -82
43 -511 43 -221 0 -399 3 -397 8 2 4 12 24 21 44 l17 36 72 -4 c40 -3 118 -1
173 5 163 15 377 7 464 -18z"/>
<path d="M1593 959 c-24 -22 -43 -43 -43 -47 0 -3 21 14 47 38 26 25 50 46 52
48 2 1 0 2 -5 2 -5 0 -28 -19 -51 -41z"/>
</g>
</svg>
