<?xml version="1.0" standalone="no"?>
<!DOCTYPE svg PUBLIC "-//W3C//DTD SVG 20010904//EN"
 "http://www.w3.org/TR/2001/REC-SVG-20010904/DTD/svg10.dtd">
<svg version="1.0" xmlns="http://www.w3.org/2000/svg"
 width="300.000000pt" height="274.000000pt" viewBox="0 0 300.000000 274.000000"
 preserveAspectRatio="xMidYMid meet">
<metadata>
Created by potrace 1.10, written by Peter Selinger 2001-2011
</metadata>
<g transform="translate(0.000000,274.000000) scale(0.100000,-0.100000)"
fill="#000000" stroke="none">
<path d="M544 2041 c-56 -41 -77 -66 -133 -159 -61 -101 -106 -225 -127 -345
-16 -91 -16 -91 6 -109 26 -21 49 -23 54 -5 2 6 9 46 15 87 33 212 173 500
244 500 18 0 19 -5 14 -48 -3 -27 -24 -116 -47 -198 -58 -212 -77 -311 -64
-331 30 -48 66 -7 106 122 48 157 119 345 130 345 5 0 7 -8 4 -17 -10 -35 -26
-190 -28 -276 -1 -70 2 -91 15 -104 46 -46 103 45 158 252 17 66 35 124 39
128 4 5 5 -66 2 -156 -5 -184 -1 -224 29 -255 36 -40 118 -26 176 30 l32 31
35 -31 c60 -53 137 -54 230 -4 26 15 63 44 82 66 l34 40 0 -41 c0 -54 21 -73
58 -52 30 17 49 60 87 199 53 196 68 195 65 -4 -3 -176 -4 -168 22 -164 33 5
54 50 84 183 14 66 29 125 33 130 3 6 8 -57 11 -140 5 -147 6 -150 28 -153 30
-4 45 33 67 163 10 55 24 117 32 138 28 70 36 44 28 -98 -6 -116 -5 -139 9
-160 29 -44 104 -27 177 41 l25 24 24 -25 c27 -29 74 -40 126 -30 44 8 114 70
138 122 15 34 21 38 56 39 67 2 132 58 155 132 10 33 -21 29 -39 -6 -22 -42
-51 -63 -95 -69 l-41 -6 0 49 c0 62 -26 112 -71 136 -43 23 -83 23 -134 -1
-86 -40 -138 -132 -140 -245 -1 -64 -3 -70 -34 -98 -18 -16 -40 -28 -49 -26
-21 4 -22 61 -2 211 17 134 11 161 -42 165 -29 2 -43 -3 -72 -28 -19 -17 -38
-40 -41 -51 -9 -26 -22 -24 -29 6 -4 14 -18 31 -32 37 -20 10 -29 8 -52 -9
-15 -11 -34 -33 -42 -49 -12 -26 -15 -27 -18 -9 -6 28 -32 55 -53 55 -28 0
-77 -47 -90 -88 l-12 -37 -10 35 c-11 44 -24 60 -48 60 -24 0 -33 -23 -48
-130 -18 -123 -27 -143 -82 -195 -84 -79 -163 -103 -211 -65 -39 30 -42 58 -7
65 43 10 124 78 155 131 18 30 27 62 28 91 2 110 -121 109 -228 -2 -55 -56
-86 -134 -86 -214 0 -54 -3 -62 -31 -85 -40 -34 -67 -34 -75 0 -6 25 -2 137
12 339 10 146 -20 212 -84 186 -53 -22 -88 -102 -148 -338 -16 -62 -33 -113
-37 -113 -5 0 -6 12 -3 28 20 101 47 336 42 365 -15 79 -67 71 -117 -18 -17
-30 -32 -55 -33 -55 -1 0 -2 24 -2 53 1 32 -5 61 -13 70 -21 26 -73 21 -117
-12z m467 -43 c8 -15 10 -53 5 -122 -17 -276 -18 -325 -8 -355 13 -36 0 -41
-22 -9 -13 18 -16 54 -16 186 0 161 0 163 -25 188 -24 24 -25 28 -13 60 13 37
42 74 58 74 5 0 15 -10 21 -22z m-228 -52 c-2 -57 -7 -64 -30 -43 -15 13 -21
13 -36 2 -21 -15 -67 -108 -92 -185 -10 -30 -21 -59 -25 -65 -4 -5 -11 -26
-15 -45 -5 -19 -10 -29 -12 -22 -5 13 15 101 47 212 10 36 21 77 25 93 4 19
11 27 28 27 28 0 38 7 66 48 31 44 46 36 44 -22z m1697 34 c0 -5 -9 -10 -20
-10 -24 0 -44 -34 -36 -65 3 -12 24 -39 46 -59 l41 -37 -21 -47 c-36 -82 -88
-116 -119 -78 -50 60 -17 242 51 290 25 18 58 21 58 6z m-342 -40 c1 -19 -4
-69 -12 -110 l-14 -75 -1 64 c-1 55 -5 69 -27 92 l-26 27 23 21 c33 30 53 23
57 -19z m366 2 c2 -4 7 -25 11 -47 l7 -40 -37 36 c-21 20 -34 42 -31 48 8 12
42 15 50 3z m-529 -31 c23 -20 30 -33 24 -42 -4 -8 -16 -49 -25 -92 -9 -42
-18 -76 -20 -74 -2 2 -6 34 -9 73 -7 84 -27 113 -62 89 -12 -9 -28 -38 -37
-68 -8 -28 -20 -72 -27 -97 l-13 -45 -6 93 c-6 77 -10 96 -30 117 -19 20 -21
27 -10 40 15 18 34 19 52 2 27 -27 46 -26 75 2 36 37 49 37 88 2z m-295 -98
c0 -16 -46 -185 -62 -225 -13 -35 -21 -35 -43 -2 -16 26 -16 28 3 63 12 20 26
68 32 106 5 39 13 81 16 94 l5 24 25 -23 c13 -13 24 -30 24 -37z m886 -8 c-3
-8 -9 -15 -15 -15 -14 0 -20 53 -8 69 9 11 13 8 20 -13 5 -15 6 -33 3 -41z
m-1163 21 c-3 -43 -48 -103 -101 -137 -61 -38 -66 -22 -23 66 46 92 129 140
124 71z m-186 -113 c-2 -10 3 -31 11 -47 11 -23 11 -33 2 -51 -10 -18 -9 -28
4 -53 22 -43 20 -46 -14 -22 -28 20 -30 26 -30 80 0 33 5 71 12 85 13 29 21
33 15 8z m-432 -113 c8 -12 -3 -50 -15 -50 -10 0 -18 31 -13 48 6 15 19 16 28
2z"/>
<path d="M2229 1558 c-7 -13 -20 -47 -29 -77 l-17 -54 -84 -21 c-102 -25 -148
-51 -128 -72 12 -11 27 -10 99 6 106 24 101 24 91 -3 -9 -23 -45 -203 -55
-269 -9 -71 -103 -184 -135 -164 -19 12 -12 83 20 214 29 119 29 127 13 139
-25 18 -41 16 -57 -7 -12 -17 -19 -19 -42 -10 -54 21 -144 -21 -194 -91 -49
-67 -74 -145 -68 -211 5 -60 -6 -88 -44 -109 -53 -28 -61 44 -35 311 16 159
13 190 -15 216 -16 14 -23 15 -49 4 -58 -24 -110 -124 -155 -300 -15 -58 -30
-112 -33 -120 -3 -8 -4 -21 -3 -28 1 -8 -3 -20 -10 -28 -10 -12 -14 -12 -20
-2 -13 20 -10 48 4 48 10 0 18 38 30 143 21 172 21 217 4 242 -31 42 -111 -25
-139 -117 -6 -21 -14 -38 -18 -38 -4 0 -9 29 -12 64 -2 37 -11 74 -21 90 -34
51 -119 27 -194 -55 -29 -32 -93 -139 -93 -156 0 -27 28 -12 55 30 71 109 134
165 169 151 26 -10 20 -110 -20 -326 -30 -162 -35 -200 -24 -213 38 -46 77 9
138 195 54 166 89 256 98 248 2 -3 0 -37 -6 -76 -7 -40 -12 -117 -13 -171 -2
-83 1 -103 15 -117 44 -44 97 34 148 216 18 63 36 122 40 130 5 8 8 -57 7
-145 -1 -140 1 -165 18 -200 34 -68 88 -72 168 -11 30 23 49 31 58 25 8 -5 29
-9 47 -9 26 0 43 10 83 50 45 45 68 63 55 42 -10 -17 24 -71 48 -78 44 -11 79
5 133 61 l53 54 15 -29 c19 -36 47 -52 91 -52 37 0 66 15 104 55 l25 26 21
-20 c71 -67 211 -26 317 90 59 67 85 117 68 133 -10 11 -18 6 -39 -22 -79
-103 -165 -170 -219 -170 -24 0 -73 36 -73 54 0 7 18 21 41 31 54 25 136 115
149 166 19 70 -3 109 -62 109 -54 0 -99 -23 -148 -77 -57 -61 -83 -124 -83
-198 0 -51 -3 -64 -25 -87 -28 -30 -51 -35 -70 -16 -21 21 -12 146 21 293 l32
139 65 13 c105 20 139 32 151 54 19 37 -2 42 -92 24 -45 -9 -89 -19 -96 -22
-9 -4 -11 7 -6 46 6 55 -6 81 -38 81 -10 0 -24 -10 -30 -22z m41 -125 c0 -8
-9 -26 -20 -41 -12 -17 -31 -82 -50 -170 -31 -148 -38 -239 -20 -273 15 -28
-3 -23 -29 7 -22 25 -23 31 -12 78 37 174 58 312 49 330 -8 14 -4 24 15 45 14
14 28 37 32 50 7 24 8 24 21 6 8 -10 14 -25 14 -32z m-737 -132 c2 -11 -1 -82
-9 -158 -7 -76 -13 -166 -14 -200 0 -64 -19 -90 -21 -30 -1 17 -3 48 -4 67 -2
19 -4 68 -4 108 -1 63 -4 76 -25 96 -21 22 -22 27 -10 55 14 33 57 81 72 81 5
0 12 -9 15 -19z m-243 -71 c0 -38 -1 -39 -35 -37 -19 1 -35 4 -35 7 0 15 52
80 61 75 5 -4 9 -24 9 -45z m1270 23 c0 -31 -51 -102 -95 -133 -24 -16 -46
-30 -49 -30 -23 0 42 140 75 164 31 21 69 21 69 -1z m-648 -88 c-8 -57 -56
-164 -93 -207 -68 -80 -102 -54 -74 56 20 76 37 107 80 145 43 37 92 41 87 6z
m-739 -17 c9 0 17 -1 17 -3 0 -2 -13 -36 -29 -77 -16 -40 -42 -112 -57 -160
-15 -49 -32 -88 -36 -88 -11 0 -10 9 7 98 47 244 47 243 64 236 9 -4 24 -6 34
-6z m1217 -52 c9 -18 10 -32 2 -53 -7 -22 -6 -36 6 -58 l15 -29 -24 16 c-26
17 -41 73 -32 121 7 33 16 34 33 3z m-468 -119 c-4 -56 -5 -57 -23 -41 -11 9
-19 22 -19 28 0 13 40 80 44 75 2 -2 1 -30 -2 -62z m-208 -73 c19 -28 17 -38
-7 -29 -18 7 -27 37 -26 85 l1 35 8 -32 c4 -18 15 -44 24 -59z"/>
<path d="M423 1269 c-20 -21 -15 -58 12 -84 30 -31 45 -32 45 -1 0 12 11 35
26 51 14 15 23 30 20 32 -12 13 -92 14 -103 2z"/>
<path d="M723 1266 c4 -10 7 -27 7 -39 0 -15 3 -18 11 -10 14 14 8 55 -10 61
-10 3 -12 0 -8 -12z"/>
<path d="M522 1228 c-31 -34 -37 -70 -15 -90 33 -30 236 -147 245 -142 4 3 19
27 33 54 l24 48 -102 65 c-157 100 -153 98 -185 65z m72 -44 c9 -8 14 -20 11
-25 -9 -14 -51 -11 -65 6 -26 31 24 49 54 19z m74 -70 c68 -43 67 -42 60 -50
-7 -6 -128 68 -128 78 0 13 9 9 68 -28z"/>
<path d="M2760 1213 c0 -4 10 -17 21 -29 40 -43 21 -100 -63 -181 -64 -62
-150 -109 -268 -147 -134 -44 -201 -57 -495 -100 -275 -40 -413 -68 -505 -102
-60 -23 -168 -83 -214 -119 -34 -26 -9 -27 42 -1 103 52 246 84 647 145 414
64 608 117 745 206 156 102 210 218 139 300 -29 33 -49 44 -49 28z"/>
<path d="M421 1058 c-1 -32 40 -68 78 -68 23 0 21 3 -15 19 -28 13 -45 29 -52
47 l-10 29 -1 -27z"/>
<path d="M792 1038 c-12 -23 -19 -44 -16 -47 8 -9 66 58 61 72 -7 23 -23 15
-45 -25z"/>
<path d="M823 1012 c-18 -19 -33 -36 -33 -38 0 -2 15 -7 33 -12 27 -7 35 -5
50 14 9 12 17 26 17 32 0 5 -8 16 -17 24 -17 14 -21 13 -50 -20z"/>
<path d="M556 989 c-26 -20 -35 -49 -16 -49 6 0 10 6 10 14 0 8 12 24 26 35
15 12 22 21 17 21 -6 0 -22 -9 -37 -21z"/>
<path d="M880 965 c-7 -8 -9 -15 -4 -15 5 0 20 -3 32 -7 22 -5 23 -4 11 16
-16 25 -22 26 -39 6z"/>
<path d="M665 941 c-9 -18 -13 -37 -9 -43 5 -7 13 4 21 27 16 48 10 57 -12 16z"/>
<path d="M743 948 c-20 -27 -43 -100 -43 -139 0 -36 2 -40 23 -37 20 3 23 10
28 74 4 39 10 81 14 92 7 24 -7 30 -22 10z"/>
</g>
</svg>
