<?xml version="1.0" standalone="no"?>
<!DOCTYPE svg PUBLIC "-//W3C//DTD SVG 20010904//EN"
 "http://www.w3.org/TR/2001/REC-SVG-20010904/DTD/svg10.dtd">
<svg version="1.0" xmlns="http://www.w3.org/2000/svg"
 width="300.000000pt" height="128.000000pt" viewBox="0 0 300.000000 128.000000"
 preserveAspectRatio="xMidYMid meet">
<metadata>
Created by potrace 1.10, written by Peter Selinger 2001-2011
</metadata>
<g transform="translate(0.000000,128.000000) scale(0.100000,-0.100000)"
fill="#000000" stroke="none">
<path d="M450 650 l0 -170 130 0 130 0 0 38 0 37 -86 -4 -86 -3 3 136 4 136
-47 0 -48 0 0 -170z m69 -104 c16 -19 9 -31 -14 -23 -12 5 -15 26 -13 124 l1
118 6 -101 c4 -64 11 -107 20 -118z"/>
<path d="M740 703 c0 -130 12 -170 62 -206 33 -24 114 -33 160 -18 19 6 48 25
64 42 28 30 29 33 34 165 l5 134 -47 0 -48 0 0 -106 c0 -132 -14 -164 -72
-164 -47 0 -58 30 -58 157 l0 113 -50 0 -50 0 0 -117z m62 -37 c3 -84 6 -97
28 -122 22 -23 22 -25 4 -16 -11 6 -27 18 -34 27 -16 20 -28 205 -12 205 6 0
11 -38 14 -94z m218 5 c0 -75 -3 -92 -21 -115 -29 -37 -33 -28 -9 19 15 29 20
59 20 112 0 40 2 73 5 73 3 0 5 -40 5 -89z"/>
<path d="M1165 753 c102 -185 140 -242 162 -243 22 0 31 12 166 248 l36 62
-42 0 -42 0 -55 -100 c-30 -55 -58 -100 -61 -100 -3 0 -11 12 -18 28 -7 15
-33 60 -58 100 -44 70 -46 72 -85 72 l-40 0 37 -67z m167 -153 c20 0 24 -25 6
-36 -6 -4 -19 3 -30 16 -20 25 -26 52 -6 32 7 -7 20 -12 30 -12z"/>
<path d="M1600 650 l0 -170 48 0 47 0 0 170 0 170 -47 0 -48 0 0 -170z m60 2
c0 -59 -5 -114 -10 -122 -7 -10 -10 27 -10 113 0 83 4 126 10 122 6 -4 10 -52
10 -113z"/>
<path d="M1760 801 c0 -11 55 -87 123 -170 122 -149 122 -150 165 -150 36 -1
42 2 42 20 0 12 -53 85 -122 170 l-123 149 -42 0 c-36 0 -43 -3 -43 -19z m104
-58 c64 -71 175 -217 170 -222 -5 -5 -27 17 -105 106 -14 16 -30 37 -35 45 -5
9 -24 32 -41 52 -30 32 -42 56 -28 56 3 0 20 -17 39 -37z"/>
<path d="M2000 788 c0 -21 13 -48 41 -85 23 -29 44 -53 48 -53 3 0 5 38 3 85
l-3 85 -45 0 c-43 0 -44 -1 -44 -32z"/>
<path d="M2281 783 c-10 -21 -22 -49 -26 -63 -4 -14 -18 -38 -31 -53 -13 -16
-24 -35 -24 -44 0 -8 -17 -35 -39 -59 -54 -61 -58 -82 -17 -89 17 -4 49 0 71
7 29 10 48 11 68 4 18 -7 37 -7 55 0 19 7 38 6 62 -3 42 -14 70 -16 89 -4 19
12 0 59 -40 97 -16 15 -29 36 -29 45 0 10 -11 30 -24 46 -13 15 -29 46 -36 68
-15 46 -38 85 -51 85 -5 0 -17 -17 -28 -37z m63 -58 c5 -18 1 -20 -34 -20 -35
0 -39 2 -34 20 3 11 13 31 21 44 l16 24 12 -24 c7 -13 15 -33 19 -44z m1 -65
c0 -21 -5 -26 -33 -28 -34 -3 -50 14 -38 44 4 10 16 14 38 12 28 -2 33 -7 33
-28z m-85 -31 c0 -4 -9 -9 -20 -12 -22 -6 -27 12 -8 31 9 9 14 9 20 -1 4 -6 8
-15 8 -18z m140 -11 c0 -10 -11 -10 -29 1 -9 6 -11 16 -7 27 7 18 8 18 22 0 8
-11 14 -23 14 -28z m-70 -12 c0 -11 -13 -36 -19 -36 -3 0 -12 9 -19 20 -11 18
-10 20 13 20 14 0 25 -2 25 -4z m-50 -31 c12 -22 12 -28 -3 -42 -15 -16 -18
-15 -37 2 -20 18 -26 45 -13 58 14 15 40 6 53 -18z m118 4 c1 -9 -6 -27 -17
-40 -19 -23 -20 -23 -40 -5 -19 17 -19 19 -3 42 19 27 55 28 60 3z m-170 -74
c-10 -8 -79 -12 -83 -5 -3 4 7 22 21 40 l27 31 19 -32 c10 -17 18 -32 16 -34z
m244 5 c2 -11 -6 -13 -37 -11 -22 2 -41 4 -43 6 -1 1 5 16 15 33 l18 31 22
-22 c12 -12 23 -29 25 -37z m-148 14 c26 -10 18 -24 -14 -24 -30 0 -41 14 -17
23 6 3 13 6 14 6 1 1 8 -2 17 -5z"/>
<path d="M1483 610 c-24 -44 -43 -91 -43 -105 0 -23 4 -25 45 -25 l45 0 0 105
c0 58 -1 105 -2 105 -2 0 -22 -36 -45 -80z"/>
<path d="M1128 580 l3 -100 45 0 c37 0 44 3 44 20 0 19 -80 179 -90 180 -3 0
-4 -45 -2 -100z"/>
<path d="M1764 565 l1 -85 48 0 c44 0 47 2 47 26 0 23 -75 142 -91 143 -4 1
-6 -37 -5 -84z"/>
</g>
</svg>
