<?xml version="1.0" standalone="no"?>
<!DOCTYPE svg PUBLIC "-//W3C//DTD SVG 20010904//EN"
 "http://www.w3.org/TR/2001/REC-SVG-20010904/DTD/svg10.dtd">
<svg version="1.0" xmlns="http://www.w3.org/2000/svg"
 width="300.000000pt" height="290.000000pt" viewBox="0 0 300.000000 290.000000"
 preserveAspectRatio="xMidYMid meet">
<metadata>
Created by potrace 1.10, written by Peter Selinger 2001-2011
</metadata>
<g transform="translate(0.000000,290.000000) scale(0.100000,-0.100000)"
fill="#000000" stroke="none">
<path d="M1651 2518 c-45 -12 -141 -110 -171 -173 -31 -64 -38 -151 -16 -194
9 -17 32 -39 51 -48 l35 -17 0 -83 c0 -49 4 -83 10 -83 6 0 10 35 10 85 l0 84
43 19 c57 26 131 104 167 176 51 101 36 197 -36 231 -36 17 -45 17 -93 3z
m102 -67 c26 -44 21 -95 -15 -162 -32 -62 -92 -124 -109 -114 -5 4 -9 18 -9
33 0 43 -26 72 -65 72 -19 0 -37 -4 -40 -10 -3 -5 -10 -10 -15 -10 -14 0 7 59
41 111 66 103 174 144 212 80z m-194 -235 c0 12 7 26 14 32 10 9 12 0 11 -41
-1 -85 -21 -121 -43 -79 -18 34 -22 87 -10 117 l13 30 6 -40 c4 -22 8 -30 9
-19z"/>
<path d="M1950 2329 c-51 -21 -91 -63 -165 -175 -42 -63 -109 -151 -150 -195
-41 -44 -75 -86 -75 -94 0 -21 -34 -19 -141 10 -190 52 -270 65 -394 65 -66 0
-138 -5 -160 -11 -50 -14 -100 -64 -114 -114 -15 -54 -15 -656 0 -725 12 -57
53 -111 103 -138 24 -13 55 -16 144 -14 81 2 133 -2 180 -15 160 -41 262 -7
384 128 40 44 85 87 101 95 54 29 120 34 229 18 139 -21 226 -15 277 21 71 48
71 51 71 534 0 466 -1 476 -57 546 -51 64 -159 93 -233 64z m173 -62 c19 -15
44 -46 56 -70 20 -42 21 -57 21 -470 0 -462 -1 -476 -53 -510 -35 -23 -61 -23
-52 1 25 59 32 107 29 202 -1 58 -3 198 -3 313 -1 183 -3 209 -19 225 -15 15
-39 17 -205 17 -103 0 -187 2 -187 5 0 3 13 21 28 40 16 19 54 73 84 120 85
131 129 163 215 157 36 -2 62 -11 86 -30z m-35 -654 c-3 -312 -4 -340 -22
-370 -32 -51 -54 -56 -176 -37 -100 16 -112 16 -174 1 -37 -9 -80 -26 -97 -37
l-29 -21 0 333 c0 377 -1 370 81 425 43 28 43 28 215 28 95 0 176 3 180 8 4 4
11 7 16 7 5 0 8 -147 6 -337z m-848 268 c47 -10 133 -31 193 -47 l107 -28 0
-363 0 -364 -43 -42 c-76 -77 -183 -109 -278 -84 -25 6 -25 7 -21 94 6 134 11
147 58 154 56 7 82 27 111 82 13 27 23 51 21 53 -6 5 -102 -26 -118 -39 -9 -7
-26 -29 -39 -49 -28 -47 -35 -48 -26 -2 12 64 24 81 64 88 37 6 68 31 90 73
16 32 14 36 -16 29 -63 -15 -81 -28 -109 -81 -15 -30 -29 -53 -31 -51 -2 2 -1
40 3 85 7 82 7 82 43 99 35 17 81 72 81 98 0 10 -7 11 -32 2 -39 -12 -78 -52
-78 -79 0 -10 -5 -19 -11 -19 -15 0 -4 56 16 86 8 12 27 25 42 29 40 9 61 27
79 70 l15 38 -32 -7 c-42 -8 -75 -39 -91 -85 l-12 -36 -7 35 c-5 23 -3 40 5
50 22 26 25 48 13 92 l-13 42 -22 -32 c-21 -28 -22 -39 -17 -109 6 -77 6 -78
-11 -48 -20 36 -54 75 -66 75 -11 0 -10 -51 1 -69 5 -8 24 -22 43 -30 l33 -16
3 -114 c1 -63 -1 -111 -5 -107 -5 4 -17 26 -28 49 -15 32 -31 47 -69 65 -26
13 -51 21 -54 18 -10 -11 18 -82 40 -103 13 -12 39 -23 58 -25 43 -4 48 -19
49 -148 l0 -95 -32 60 c-25 47 -41 65 -77 83 -24 12 -54 22 -66 22 -22 0 -22
-1 -7 -39 22 -56 54 -82 107 -88 30 -4 47 -11 50 -22 13 -48 17 -85 11 -119
l-6 -37 -139 0 c-151 0 -167 5 -214 69 -20 26 -21 42 -24 392 -3 393 -2 404
51 439 58 38 248 40 407 6z"/>
<path d="M1726 1755 c-69 -28 -85 -40 -70 -55 8 -8 27 -2 65 17 50 26 63 28
171 28 64 0 120 3 124 7 14 15 -50 28 -139 28 -74 0 -103 -5 -151 -25z"/>
<path d="M1760 1661 c-43 -14 -110 -51 -110 -61 0 -20 19 -18 71 8 48 24 64
27 144 25 49 -1 103 -3 119 -5 33 -3 46 16 19 27 -27 11 -214 16 -243 6z"/>
<path d="M1775 1553 c-51 -14 -115 -47 -115 -59 0 -18 5 -18 70 8 53 21 146
27 254 16 33 -3 46 16 19 27 -23 9 -202 16 -228 8z"/>
<path d="M1732 1432 c-56 -20 -91 -46 -79 -59 4 -4 22 -1 40 6 92 38 143 46
228 33 84 -12 113 -6 84 18 -10 9 -53 15 -118 17 -82 3 -113 0 -155 -15z"/>
<path d="M1785 1344 c-97 -25 -144 -51 -131 -73 4 -6 29 0 64 16 51 23 66 25
147 20 50 -3 103 -9 118 -13 25 -6 28 -4 25 11 -1 11 -16 22 -33 27 -40 10
-165 18 -190 12z"/>
<path d="M1059 1552 c17 -31 45 -50 84 -54 45 -5 46 4 8 43 -22 21 -39 29 -66
29 -31 0 -34 -2 -26 -18z"/>
<path d="M922 894 c-92 -24 -205 -94 -196 -119 9 -22 19 -19 77 20 106 72 254
94 367 55 30 -10 58 -16 62 -14 43 27 -78 74 -186 73 -39 0 -95 -7 -124 -15z"/>
<path d="M1730 543 c0 -68 0 -126 -1 -130 0 -4 5 -9 12 -12 9 -3 11 21 7 98
-3 56 -1 96 3 89 5 -7 23 -52 40 -100 17 -49 35 -88 39 -88 4 0 23 46 43 103
l36 102 0 -103 c1 -72 4 -103 12 -100 8 3 11 42 10 123 -3 172 -10 175 -61 26
-19 -56 -37 -101 -40 -101 -3 0 -20 40 -39 89 -54 147 -60 147 -61 4z"/>
<path d="M606 553 c-30 -159 -30 -153 -13 -153 18 0 23 12 32 74 9 55 18 50
38 -19 8 -27 20 -50 27 -50 7 0 22 27 33 60 22 65 27 62 42 -28 5 -29 10 -37
23 -35 9 2 17 8 17 13 -1 27 -49 235 -55 235 -4 0 -17 -38 -30 -85 -12 -46
-27 -82 -31 -79 -5 3 -9 10 -9 16 0 20 -42 148 -49 148 -3 0 -15 -44 -25 -97z"/>
<path d="M2198 608 c-2 -25 -7 -32 -20 -30 -10 2 -18 -2 -18 -8 0 -5 9 -10 20
-10 18 0 20 -7 20 -68 0 -40 5 -73 12 -80 15 -15 48 -16 48 -2 0 6 -9 10 -20
10 -18 0 -20 7 -20 60 0 33 -1 63 -2 68 -2 4 7 8 20 10 29 4 29 22 -1 22 -20
0 -23 4 -19 30 2 17 0 30 -6 30 -6 0 -12 -15 -14 -32z"/>
<path d="M892 557 c-32 -34 -30 -100 3 -132 31 -32 93 -34 120 -5 13 14 15 24
8 31 -7 7 -14 5 -23 -6 -17 -21 -63 -19 -83 3 -10 10 -17 22 -17 25 0 4 32 7
70 7 67 0 70 1 70 24 0 13 -9 35 -21 50 -28 35 -95 37 -127 3z m96 -19 c22
-22 13 -28 -38 -28 -51 0 -64 11 -32 29 23 14 55 14 70 -1z"/>
<path d="M1076 570 c-2 -3 -3 -41 -2 -85 1 -67 4 -80 18 -83 15 -3 18 7 20 70
3 65 5 73 23 73 18 0 20 -8 23 -73 2 -63 5 -73 20 -70 14 3 18 17 20 71 2 50
7 70 18 74 24 9 34 -15 34 -84 0 -49 3 -63 15 -63 23 0 21 142 -2 161 -16 14
-181 22 -187 9z"/>
<path d="M1336 549 c-35 -41 -34 -83 3 -120 41 -40 91 -40 132 0 37 37 38 79
3 120 -21 26 -33 31 -69 31 -36 0 -48 -5 -69 -31z m106 -16 c37 -33 11 -103
-38 -103 -20 0 -64 41 -64 60 0 4 9 19 21 34 23 30 54 33 81 9z"/>
<path d="M2018 569 c-10 -5 -18 -17 -18 -25 0 -13 3 -13 22 0 41 29 88 15 88
-26 0 -15 -3 -17 -19 -8 -32 16 -60 12 -87 -15 -27 -27 -26 -59 4 -82 20 -16
74 -17 90 -1 9 9 12 9 12 0 0 -7 5 -12 10 -12 6 0 10 30 10 70 0 57 -4 74 -20
90 -21 21 -64 26 -92 9z m82 -84 c16 -20 4 -50 -26 -64 -47 -21 -90 24 -58 60
20 23 67 25 84 4z"/>
<path d="M2315 555 c-54 -53 -18 -155 55 -155 42 0 96 28 81 43 -7 7 -16 6
-29 -6 -25 -23 -68 -21 -92 3 -31 31 -26 53 10 45 16 -3 49 -3 75 0 35 6 45
11 45 27 0 32 -45 68 -85 68 -25 0 -44 -8 -60 -25z m107 -12 c35 -32 23 -43
-47 -43 -69 0 -79 8 -48 42 20 22 70 23 95 1z"/>
<path d="M830 541 c-14 -27 -13 -74 3 -94 10 -15 12 -7 13 48 0 36 -1 65 -2
65 -2 0 -8 -9 -14 -19z"/>
<path d="M1545 520 c-4 -6 17 -10 55 -10 38 0 59 4 55 10 -3 6 -28 10 -55 10
-27 0 -52 -4 -55 -10z"/>
</g>
</svg>
